<svg width="1200" height="800" viewBox="0 0 1200 800" fill="none" xmlns="http://www.w3.org/2000/svg">
  <defs>
    <pattern id="dot-grid" x="0" y="0" width="52" height="52" patternUnits="userSpaceOnUse">
      <circle cx="26" cy="26" r="7" fill="#28BE5B" fill-opacity="0.28"/>
    </pattern>
  </defs>

  <rect width="1200" height="800" rx="56" fill="#62E07A"/>
  <rect width="1200" height="800" rx="56" fill="url(#dot-grid)"/>

  <g transform="translate(600 400)">
    <path
      d="M6 182C4 138 8 96 18 60"
      stroke="#FFF9EE"
      stroke-width="26"
      stroke-linecap="round"
      stroke-linejoin="round"
    />
    <path
      d="M24 58C24 -18 90 -84 184 -84C184 -8 146 52 84 82C60 94 40 100 24 100"
      fill="#FFF9EE"
    />
    <path
      d="M2 112C-8 54 -52 0 -136 -24C-144 34 -122 88 -82 122C-50 148 -18 162 8 166"
      fill="#FFF9EE"
    />
    <path
      d="M20 84C56 52 92 28 134 8"
      stroke="#DDF8E4"
      stroke-width="10"
      stroke-linecap="round"
      stroke-linejoin="round"
    />
    <path
      d="M0 118C-30 86 -62 62 -102 38"
      stroke="#DDF8E4"
      stroke-width="10"
      stroke-linecap="round"
      stroke-linejoin="round"
    />
  </g>
</svg>
